<svg width="64" height="64" viewBox="0 0 64 64" fill="none" xmlns="http://www.w3.org/2000/svg">
<g clip-path="url(#clip0_39_852)">
<path d="M32 64C49.6731 64 64 49.6731 64 32C64 14.3269 49.6731 0 32 0C14.3269 0 0 14.3269 0 32C0 49.6731 14.3269 64 32 64Z" fill="#4E7AF0"/>
<path d="M32 55.2794C45.2548 55.2794 56 44.5343 56 31.2794C56 18.0246 45.2548 7.27942 32 7.27942C18.7452 7.27942 8 18.0246 8 31.2794C8 44.5343 18.7452 55.2794 32 55.2794Z" fill="#FFFEFF"/>
<path d="M32.1721 29.281C33.7895 29.281 35.2719 29.8688 36.4148 30.8397C36.9438 31.2903 37.7623 31.1031 38.0344 30.4631C38.7266 28.8348 38.781 26.8712 37.8755 24.8794C37.303 23.6212 36.2929 22.6024 35.0368 22.0299C30.1781 19.8095 25.4434 23.3012 25.4434 27.9009C25.4434 29.4443 25.9789 30.8614 26.8714 31.9825C28.0643 30.3455 29.993 29.281 32.1721 29.281Z" fill="#274CB6"/>
<path d="M31.9999 18.068C26.7123 18.068 22.426 22.3543 22.426 27.6419C22.426 28.1012 22.4609 28.9719 22.524 29.3681H23.7996C23.7496 29.0002 23.7213 28.1099 23.7213 27.7289C23.7213 22.9899 27.7028 19.1804 32.5006 19.4634C36.4908 19.6985 39.78 22.8179 40.2285 26.7885C40.2307 26.8168 40.235 26.8451 40.2372 26.8734C40.4309 28.7586 39.804 30.6438 38.5218 32.0391C38.5087 32.0522 38.4979 32.0653 38.4848 32.0783C37.9341 32.6683 37.1547 32.9904 36.3471 32.9904H34.0092V32.9164C34.0092 32.1132 33.3583 31.4623 32.555 31.4623H31.0834C30.2802 31.4623 29.6293 32.1132 29.6293 32.9164C29.6293 33.7197 30.2802 34.3706 31.0834 34.3706H36.9175C37.4791 34.3706 38.019 34.1638 38.4347 33.785C38.8505 33.4062 39.3991 32.8685 39.9172 32.2372C40.9751 30.9507 41.5694 29.3311 41.5738 27.6658C41.5738 27.6571 41.5738 27.6506 41.5738 27.6419C41.5738 22.3543 37.2875 18.068 31.9999 18.068Z" fill="#274CB6"/>
<path d="M23.9761 44.5823H40.0218C42.1965 44.5823 43.5135 42.1791 42.3424 40.3461L41.0798 38.3695C40.0262 36.7173 38.202 35.7181 36.2428 35.7181C35.4657 35.7181 34.7081 35.9532 34.0681 36.3929C32.8295 37.2441 31.2055 37.2942 29.9168 36.5192L29.4945 36.2645C28.898 35.9053 28.2145 35.7159 27.5179 35.7159C25.2844 35.7159 23.2469 36.9959 22.276 39.0074L21.4945 40.6291C20.6129 42.4577 21.9451 44.578 23.974 44.578L23.9761 44.5823Z" fill="#274CB6"/>
</g>
<defs>
<clipPath id="clip0_39_852">
<rect width="64" height="64" fill="white"/>
</clipPath>
</defs>
</svg>
