<svg width="24" height="24" viewBox="0 0 24 24" fill="none" xmlns="http://www.w3.org/2000/svg">
<path d="M20.1301 4.13996C19.8113 4.15121 19.5188 4.31996 19.3501 4.58996L10.3201 18.405L4.47009 13.35C4.21884 13.0893 3.84197 12.9918 3.49509 13.1006C3.15009 13.2075 2.89322 13.5 2.83322 13.8562C2.77322 14.2143 2.91759 14.5743 3.21009 14.79L9.90009 20.58C10.1101 20.7581 10.3876 20.8368 10.6595 20.7975C10.9332 20.7562 11.1751 20.6006 11.3251 20.37L20.9701 5.63996C21.1763 5.33808 21.1932 4.94808 21.0151 4.62933C20.837 4.31246 20.4938 4.12308 20.1301 4.13996Z" fill="white"/>
</svg>
