<svg width="41" height="35" viewBox="0 0 41 35" fill="none" xmlns="http://www.w3.org/2000/svg">
<g clip-path="url(#clip0_41_1729)">
<path d="M35.9089 11.7051H31.3919C31.4346 11.9432 31.457 12.1896 31.457 12.4399V16.731C31.457 19.642 29.0977 22.0033 26.1848 22.0033H14.2845C13.7634 22.0033 13.2667 21.9076 12.8066 21.7326V26.0827C12.8066 28.389 14.6774 30.2598 16.9837 30.2598H28.9247L35.4448 34.8338V30.2598H35.9069C38.2133 30.2598 40.084 28.389 40.084 26.0827V15.8822C40.084 13.5758 38.2133 11.7051 35.9069 11.7051H35.9089Z" fill="white"/>
<path d="M25.4274 0H4.66813C2.13785 0 0.0859375 2.05191 0.0859375 4.58219V15.772C0.0859375 18.3023 2.13785 20.3542 4.66813 20.3542H5.175V25.372L12.3282 20.3542H25.4274C27.9577 20.3542 30.0096 18.3023 30.0096 15.772V4.58219C30.0096 2.05191 27.9577 0 25.4274 0ZM19.2676 12.9567C19.2676 14.058 18.9155 14.9109 18.2091 15.5155C17.7653 15.8962 17.2055 16.1588 16.5297 16.2992V17.6977H14.376V16.3664C14.1216 16.3318 13.8651 16.285 13.6086 16.2198C13.0651 16.0835 12.5826 15.9084 12.1572 15.6926C11.7317 15.4768 11.4264 15.2489 11.2371 15.0087L12.2366 13.2316C12.6396 13.5939 13.0997 13.8728 13.6167 14.0682C14.1338 14.2656 14.6691 14.3634 15.2249 14.3634C15.8274 14.3634 16.2956 14.2433 16.6294 14.0051C16.9613 13.7669 17.1282 13.429 17.1282 12.9954V12.9873C17.1282 12.6575 17.0447 12.4051 16.8798 12.228C16.7149 12.0529 16.4971 11.9226 16.2264 11.8392C15.9557 11.7557 15.6646 11.6845 15.349 11.6275C14.9399 11.5542 14.5266 11.4646 14.1073 11.3608C13.688 11.257 13.3032 11.0941 12.9511 10.8723C12.5989 10.6524 12.316 10.3369 12.1022 9.9257C11.8864 9.5145 11.7806 8.96285 11.7806 8.27074V8.2626C11.7806 7.14707 12.1205 6.28193 12.8025 5.67125C13.2218 5.29669 13.747 5.03613 14.376 4.8916V3.48092H16.5297V4.83257C16.8167 4.88346 17.1078 4.96285 17.403 5.06667C17.9892 5.2743 18.5348 5.56947 19.0376 5.95216L18.1256 7.77608C17.7328 7.46667 17.3256 7.23054 16.9022 7.06361C16.4808 6.89873 16.0717 6.81527 15.6788 6.81527C15.1231 6.81527 14.6915 6.92316 14.3821 7.14097C14.0727 7.35878 13.918 7.66412 13.918 8.057V8.06514C13.918 8.43155 14.0096 8.71043 14.1928 8.90178C14.376 9.09313 14.6183 9.23562 14.9195 9.32723C15.2208 9.41883 15.5424 9.50229 15.8824 9.57557C16.2854 9.65903 16.6864 9.76285 17.0854 9.88702C17.4844 10.0092 17.8468 10.1863 18.1745 10.4183C18.5022 10.6483 18.7648 10.9659 18.9643 11.369C19.1638 11.772 19.2635 12.2972 19.2635 12.9425V12.9588L19.2676 12.9567Z" fill="white"/>
</g>
<defs>
<clipPath id="clip0_41_1729">
<rect width="40" height="34.8356" fill="white" transform="translate(0.0859375)"/>
</clipPath>
</defs>
</svg>
