<svg width="46" height="42" viewBox="0 0 46 42" fill="none" xmlns="http://www.w3.org/2000/svg">
<g clip-path="url(#clip0_26_40)">
<path d="M41.1965 14.4302H36.0019C36.0511 14.7041 36.0768 14.9873 36.0768 15.2753V20.21C36.0768 23.5576 33.3637 26.2731 30.0137 26.2731H16.3284C15.7292 26.2731 15.158 26.1631 14.6289 25.9618V30.9644C14.6289 33.6167 16.7803 35.7681 19.4326 35.7681H33.1647L40.6628 41.0282V35.7681H41.1942C43.8465 35.7681 45.9979 33.6167 45.9979 30.9644V19.2338C45.9979 16.5815 43.8465 14.4302 41.1942 14.4302H41.1965Z" fill="#002A74"/>
<path d="M29.1427 0.969727H5.26952C2.35969 0.969727 0 3.32942 0 6.23924V19.1075C0 22.0174 2.35969 24.3771 5.26952 24.3771H5.85242V30.1475L14.0786 24.3771H29.1427C32.0525 24.3771 34.4122 22.0174 34.4122 19.1075V6.23924C34.4122 3.32942 32.0525 0.969727 29.1427 0.969727ZM22.0589 15.87C22.0589 17.1364 21.6539 18.1173 20.8416 18.8126C20.3313 19.2503 19.6875 19.5523 18.9103 19.7138V21.3221H16.4336V19.7911C16.141 19.7513 15.846 19.6975 15.551 19.6226C14.926 19.4657 14.3712 19.2644 13.8819 19.0162C13.3927 18.7681 13.0415 18.5059 12.8238 18.2297L13.9732 16.186C14.4367 16.6027 14.9658 16.9234 15.5604 17.1481C16.155 17.3752 16.7707 17.4876 17.4098 17.4876C18.1027 17.4876 18.6411 17.3495 19.025 17.0756C19.4066 16.8017 19.5986 16.4131 19.5986 15.9145V15.9051C19.5986 15.5259 19.5026 15.2356 19.313 15.0319C19.1234 14.8306 18.8729 14.6808 18.5615 14.5848C18.2502 14.4888 17.9154 14.4069 17.5526 14.3413C17.082 14.2571 16.6068 14.1541 16.1246 14.0347C15.6423 13.9153 15.1999 13.728 14.7949 13.4728C14.3899 13.22 14.0645 12.8572 13.8187 12.3843C13.5706 11.9114 13.4489 11.277 13.4489 10.4811V10.4717C13.4489 9.18886 13.8398 8.19395 14.624 7.49166C15.1063 7.06092 15.7102 6.76128 16.4336 6.59507V4.97278H18.9103V6.52718C19.2404 6.58571 19.5752 6.677 19.9146 6.79639C20.5888 7.03517 21.2162 7.37461 21.7944 7.81471L20.7456 9.91222C20.2938 9.55639 19.8256 9.28484 19.3387 9.09288C18.8541 8.90326 18.3836 8.80728 17.9318 8.80728C17.2927 8.80728 16.7964 8.93136 16.4406 9.18184C16.0848 9.43232 15.9069 9.78347 15.9069 10.2353V10.2446C15.9069 10.666 16.0122 10.9867 16.2229 11.2068C16.4336 11.4268 16.7122 11.5907 17.0586 11.696C17.4051 11.8014 17.775 11.8974 18.1659 11.9816C18.6294 12.0776 19.0906 12.197 19.5494 12.3398C20.0082 12.4803 20.4249 12.6839 20.8018 12.9508C21.1787 13.2153 21.4807 13.5805 21.7101 14.044C21.9395 14.5075 22.0542 15.1115 22.0542 15.8536V15.8723L22.0589 15.87Z" fill="#002A74"/>
</g>
<defs>
<clipPath id="clip0_26_40">
<rect width="46" height="40.061" fill="white" transform="translate(0 0.969727)"/>
</clipPath>
</defs>
</svg>
