<svg width="102" height="42" viewBox="0 0 102 42" fill="none" xmlns="http://www.w3.org/2000/svg">
<path d="M5.17062 32.8759H9.45869C9.48401 33.5396 9.40624 34.1635 9.22901 34.7531C9.04996 35.3409 8.77325 35.8618 8.39707 36.3121C8.01908 36.7642 7.55429 37.1187 6.99906 37.3755C6.44384 37.6323 5.80903 37.7608 5.09647 37.7608C4.42549 37.7608 3.80516 37.6486 3.23908 37.4244C2.6712 37.2001 2.17746 36.8854 1.75969 36.4803C1.34191 36.0752 1.01818 35.5905 0.790303 35.0262C0.562425 34.462 0.448486 33.8452 0.448486 33.1743C0.448486 32.5033 0.566042 31.8884 0.802963 31.3277C1.03988 30.7689 1.36904 30.2896 1.79043 29.8917C2.21363 29.4939 2.71098 29.1882 3.28249 28.9712C3.85399 28.756 4.47613 28.6475 5.1471 28.6475C5.74393 28.6475 6.28107 28.7307 6.75672 28.8952C7.23237 29.0616 7.65557 29.2913 8.02451 29.5843C8.39346 29.8791 8.70995 30.2281 8.97581 30.6351L7.46024 31.5176C7.24502 31.136 6.94481 30.8286 6.55958 30.5917C6.17436 30.3547 5.70414 30.2372 5.14891 30.2372C4.62624 30.2372 4.15059 30.3547 3.72016 30.5917C3.28972 30.8286 2.94791 31.165 2.69471 31.6044C2.44151 32.0439 2.31491 32.5666 2.31491 33.1707C2.31491 33.7747 2.4397 34.292 2.68747 34.7423C2.93525 35.1944 3.27344 35.5435 3.70026 35.7931C4.12708 36.0408 4.60996 36.1656 5.14891 36.1656C5.5052 36.1656 5.8235 36.1186 6.10564 36.0227C6.38777 35.9269 6.63012 35.793 6.83267 35.6194C7.03523 35.4458 7.20705 35.2469 7.34811 35.0226C7.48918 34.7983 7.59588 34.5542 7.67184 34.2901H5.17423V32.874L5.17062 32.8759Z" fill="#002A74"/>
<path d="M11.7591 27.8301V37.5257H10.144V27.8301H11.7591Z" fill="#002A74"/>
<path d="M12.7592 33.1002C13.0359 32.6535 13.4139 32.3044 13.8896 32.0566C14.3652 31.8089 14.906 31.6841 15.5118 31.6841C16.1177 31.6841 16.6567 31.8089 17.1341 32.0566C17.6098 32.3044 17.9878 32.6535 18.2645 33.1002C18.5412 33.5469 18.6804 34.0696 18.6804 34.6664C18.6804 35.2632 18.5412 35.775 18.2645 36.2272C17.9859 36.6793 17.6098 37.0284 17.1341 37.2779C16.6567 37.5257 16.1177 37.6505 15.5118 37.6505C14.906 37.6505 14.367 37.5257 13.8896 37.2779C13.4121 37.0302 13.0359 36.6793 12.7592 36.2272C12.4807 35.775 12.3433 35.256 12.3433 34.6664C12.3433 34.0768 12.4825 33.5469 12.7592 33.1002ZM14.188 35.5182C14.3254 35.7624 14.5081 35.9541 14.7414 36.0897C14.9729 36.2272 15.2297 36.2941 15.5118 36.2941C15.794 36.2941 16.0508 36.2254 16.2823 36.0897C16.5138 35.9523 16.6983 35.7624 16.8357 35.5182C16.9732 35.2741 17.0401 34.9901 17.0401 34.6664C17.0401 34.3427 16.9713 34.0569 16.8357 33.8091C16.6983 33.5614 16.5138 33.3697 16.2823 33.2376C16.0508 33.1056 15.794 33.0387 15.5118 33.0387C15.2297 33.0387 14.9729 33.1056 14.7414 33.2376C14.5099 33.3697 14.3254 33.5614 14.188 33.8091C14.0505 34.0569 13.9836 34.3445 13.9836 34.6664C13.9836 34.9883 14.0523 35.2741 14.188 35.5182Z" fill="#002A74"/>
<path d="M20.8436 37.5257H19.2285V27.8301H20.8436V37.5257ZM25.1569 36.2832C24.9001 36.73 24.5619 37.07 24.1442 37.3033C23.7264 37.5348 23.2761 37.6505 22.795 37.6505C22.3139 37.6505 21.9016 37.5293 21.5326 37.2906C21.1637 37.0501 20.8725 36.7065 20.6555 36.2597C20.4402 35.813 20.3317 35.2813 20.3317 34.6682C20.3317 34.0551 20.4402 33.5144 20.6555 33.0713C20.8707 32.6282 21.1637 32.2863 21.5326 32.0458C21.9016 31.8053 22.3211 31.6859 22.795 31.6859C23.2688 31.6859 23.7246 31.8017 24.1442 32.0332C24.5619 32.2646 24.9001 32.6028 25.1569 33.0459C25.4138 33.489 25.5422 34.0298 25.5422 34.6682C25.5422 35.3066 25.4138 35.8365 25.1569 36.2851V36.2832ZM23.6667 33.7838C23.5256 33.5361 23.3375 33.3444 23.1006 33.2123C22.8637 33.0803 22.6051 33.0134 22.3229 33.0134C22.0824 33.0134 21.8491 33.0785 21.6212 33.2069C21.3934 33.3353 21.2071 33.5234 21.0624 33.773C20.9177 34.0208 20.8454 34.3192 20.8454 34.6682C20.8454 35.0173 20.9177 35.3139 21.0624 35.5634C21.2071 35.8112 21.3934 36.0011 21.6212 36.1295C21.8491 36.2579 22.0824 36.323 22.3229 36.323C22.6051 36.323 22.8637 36.2561 23.1006 36.1241C23.3375 35.9921 23.5256 35.8004 23.6667 35.5526C23.8078 35.3048 23.8783 35.01 23.8783 34.67C23.8783 34.33 23.8078 34.037 23.6667 33.7874V33.7838Z" fill="#002A74"/>
<path d="M27.3941 36.1765C27.4773 36.2958 27.5913 36.3881 27.7359 36.4495C27.8806 36.511 28.0398 36.5436 28.2152 36.5436C28.463 36.5436 28.6872 36.4911 28.8862 36.3881C29.0851 36.285 29.2461 36.1349 29.3709 35.9413C29.4957 35.746 29.5571 35.5127 29.5571 35.2396L29.7561 35.9847C29.7561 36.3501 29.6548 36.6557 29.4523 36.9053C29.2497 37.1531 28.9875 37.3412 28.6692 37.4641C28.3508 37.5889 28.0163 37.6504 27.669 37.6504C27.3218 37.6504 26.9818 37.5799 26.6743 37.4388C26.3669 37.2978 26.1209 37.0934 25.9346 36.8239C25.7483 36.5544 25.6543 36.2253 25.6543 35.8364C25.6543 35.2812 25.8496 34.8417 26.2385 34.518C26.6273 34.1943 27.1789 34.0333 27.8915 34.0333C28.2568 34.0333 28.5769 34.0713 28.8554 34.1455C29.1321 34.2196 29.3673 34.3118 29.5571 34.4185C29.747 34.5271 29.8845 34.6301 29.9677 34.7296V35.4747C29.7434 35.3083 29.4939 35.1854 29.2153 35.1022C28.9368 35.019 28.6456 34.9774 28.3382 34.9774C28.0904 34.9774 27.886 35.0081 27.7287 35.0714C27.5714 35.1329 27.4556 35.2197 27.3815 35.3319C27.3073 35.444 27.2693 35.5832 27.2693 35.7478C27.2693 35.9124 27.3109 36.0571 27.3941 36.1765ZM26.0522 32.3297C26.3506 32.1723 26.7159 32.0204 27.1464 31.8757C27.5768 31.731 28.0579 31.6587 28.5878 31.6587C29.0761 31.6587 29.5119 31.7292 29.8935 31.8703C30.2751 32.0114 30.5736 32.2157 30.7888 32.4852C31.004 32.7547 31.1125 33.0838 31.1125 33.4727V37.5256H29.559V33.8091C29.559 33.6517 29.5336 33.5179 29.4848 33.4058C29.436 33.2936 29.3582 33.2014 29.2551 33.1254C29.152 33.0513 29.0291 32.997 28.888 32.9645C28.7469 32.9319 28.5896 32.9156 28.416 32.9156C28.1501 32.9156 27.8987 32.9446 27.6582 33.0024C27.4176 33.0603 27.2115 33.1309 27.036 33.214C26.8624 33.2972 26.734 33.3678 26.6508 33.4256L26.054 32.3315L26.0522 32.3297Z" fill="#002A74"/>
<path d="M33.5975 27.8301V37.5257H31.9824V27.8301H33.5975Z" fill="#002A74"/>
<path d="M36.8041 28.8247L35.5237 31.8956H34.3933L35.0896 28.8247H36.8041Z" fill="#002A74"/>
<path d="M37.5619 36.0898C37.7699 36.2272 37.9652 36.3285 38.1515 36.3936C38.3378 36.4605 38.5132 36.4931 38.6796 36.4931C38.8948 36.4931 39.0612 36.4461 39.1769 36.3502C39.2927 36.2543 39.3505 36.1241 39.3505 35.9577C39.3505 35.8094 39.3035 35.6828 39.2077 35.5779C39.1118 35.4749 38.9744 35.3808 38.7917 35.2976C38.609 35.2144 38.3775 35.1276 38.0954 35.0372C37.8296 34.9377 37.5727 34.8202 37.325 34.6827C37.0772 34.5453 36.871 34.3644 36.7101 34.1365C36.5491 33.9087 36.4677 33.6175 36.4677 33.2594C36.4677 32.9013 36.5581 32.6318 36.7408 32.3949C36.9235 32.158 37.1694 31.9807 37.4805 31.8596C37.7916 31.7402 38.137 31.6787 38.5186 31.6787C38.8423 31.6787 39.1444 31.7203 39.4265 31.8035C39.7086 31.8867 39.9691 31.997 40.2096 32.1327C40.4501 32.2701 40.6617 32.4293 40.8444 32.6119L40.1355 33.6066C39.9275 33.3824 39.6815 33.2015 39.3958 33.0604C39.11 32.9194 38.8297 32.8488 38.5566 32.8488C38.3739 32.8488 38.2311 32.885 38.128 32.9537C38.0249 33.0243 37.9724 33.1292 37.9724 33.2702C37.9724 33.395 38.0249 33.5035 38.128 33.5994C38.2311 33.6952 38.3812 33.7802 38.5747 33.8544C38.77 33.9285 38.9906 34.0208 39.2402 34.1275C39.5459 34.2432 39.8298 34.3735 40.092 34.5199C40.3525 34.6646 40.5623 34.8455 40.7196 35.0607C40.877 35.2759 40.9565 35.5581 40.9565 35.9053C40.9565 36.4768 40.7703 36.9217 40.3977 37.2418C40.0251 37.5601 39.5115 37.7211 38.8568 37.7211C38.4499 37.7211 38.0791 37.6668 37.7445 37.5601C37.4082 37.4534 37.1061 37.3087 36.8367 37.1315C36.5672 36.9543 36.3248 36.7607 36.1096 36.5528L36.8927 35.5454C37.1333 35.7697 37.3575 35.9487 37.5637 36.0862L37.5619 36.0898Z" fill="#002A74"/>
<path d="M46.4742 28.8247V35.9721H49.943V37.5257H44.6982V28.8247H46.4761H46.4742Z" fill="#002A74"/>
<path d="M50.4025 28.9425C50.5924 28.7725 50.8202 28.6875 51.0861 28.6875C51.3519 28.6875 51.5762 28.7725 51.7643 28.9425C51.9506 29.1125 52.0446 29.3295 52.0446 29.5954C52.0446 29.8613 51.9524 30.0674 51.7643 30.241C51.578 30.4147 51.3519 30.5015 51.0861 30.5015C50.8202 30.5015 50.5924 30.4147 50.4025 30.241C50.2126 30.0674 50.1167 29.8522 50.1167 29.5954C50.1167 29.3386 50.2126 29.1125 50.4025 28.9425ZM51.8565 31.8073V37.5241H50.2903V31.8073H51.8565Z" fill="#002A74"/>
<path d="M55.7342 31.8069V33.1615H52.2039V31.8069H55.7342ZM54.7395 29.8193V37.5256H53.1859V29.8193H54.7395Z" fill="#002A74"/>
<path d="M57.0399 37.2761C56.5751 37.0284 56.217 36.6811 55.9638 36.238C55.7106 35.7949 55.584 35.2704 55.584 34.6664C55.584 34.0623 55.7106 33.5252 55.9638 33.0821C56.217 32.639 56.5751 32.2954 57.0399 32.0512C57.5047 31.8071 58.0508 31.6841 58.6802 31.6841C59.3096 31.6841 59.8467 31.798 60.2898 32.0259C60.7329 32.2538 61.0711 32.5847 61.3026 33.0206C61.5341 33.4565 61.6499 33.9791 61.6499 34.5922C61.6499 34.6664 61.6481 34.746 61.6426 34.8292C61.639 34.9123 61.6318 34.9775 61.6245 35.0281H56.5027V34.0334H60.2193L59.7834 34.6049C59.816 34.5561 59.8467 34.4873 59.8775 34.4005C59.9064 34.3137 59.9209 34.2414 59.9209 34.1835C59.9209 33.9014 59.8684 33.6608 59.7654 33.4619C59.6623 33.2629 59.514 33.1056 59.3241 32.9899C59.1342 32.8741 58.9099 32.8162 58.6531 32.8162C58.3384 32.8162 58.0744 32.885 57.8646 33.0206C57.653 33.1581 57.492 33.3606 57.3799 33.6301C57.2677 33.8996 57.2081 34.2323 57.199 34.6302C57.199 35.0118 57.2551 35.3355 57.3672 35.5996C57.4793 35.8655 57.6475 36.068 57.87 36.2091C58.0943 36.3501 58.3637 36.4207 58.6784 36.4207C59.0347 36.4207 59.3385 36.352 59.5917 36.2163C59.8449 36.0789 60.0529 35.8745 60.2193 35.6014L61.6245 36.0373C61.3261 36.5762 60.9301 36.9795 60.4381 37.249C59.9444 37.5185 59.3548 37.6523 58.6676 37.6523C58.0454 37.6523 57.5029 37.5275 57.0399 37.2797V37.2761Z" fill="#002A74"/>
<path d="M63.8254 37.5257H62.2466V31.8088H63.8254V37.5257ZM65.1746 33.2557C65.0625 33.2014 64.9232 33.1743 64.7587 33.1743C64.5597 33.1743 64.3897 33.2286 64.2487 33.3353C64.1076 33.4438 64.0027 33.5939 63.9322 33.7892C63.8616 33.9845 63.8273 34.2178 63.8273 34.4909L63.3805 34.0442C63.3805 33.5885 63.4674 33.1851 63.641 32.8325C63.8146 32.4798 64.0425 32.1995 64.3246 31.9879C64.6067 31.7763 64.8961 31.6714 65.1945 31.6714C65.4007 31.6714 65.5978 31.7094 65.7841 31.7835C65.9704 31.8577 66.1223 31.9698 66.2381 32.1199L65.5056 33.4872C65.3971 33.3877 65.2886 33.3117 65.1764 33.2575L65.1746 33.2557Z" fill="#002A74"/>
<path d="M67.741 36.1765C67.8242 36.2958 67.9382 36.3881 68.0829 36.4495C68.2275 36.511 68.3867 36.5436 68.5621 36.5436C68.8099 36.5436 69.0342 36.4911 69.2331 36.3881C69.432 36.285 69.593 36.1349 69.7178 35.9413C69.8426 35.746 69.9041 35.5127 69.9041 35.2396L70.103 35.9847C70.103 36.3501 70.0017 36.6557 69.7992 36.9053C69.5966 37.1531 69.3344 37.3412 69.0161 37.4641C68.6978 37.5889 68.3632 37.6504 68.0159 37.6504C67.6687 37.6504 67.3287 37.5799 67.0212 37.4388C66.7138 37.2978 66.4678 37.0934 66.2815 36.8239C66.0953 36.5544 66.0012 36.2253 66.0012 35.8364C66.0012 35.2812 66.1965 34.8417 66.5854 34.518C66.9742 34.1943 67.5258 34.0333 68.2384 34.0333C68.6037 34.0333 68.9238 34.0713 69.2024 34.1455C69.4791 34.2196 69.7142 34.3118 69.9041 34.4185C70.094 34.5271 70.2314 34.6301 70.3146 34.7296V35.4747C70.0904 35.3083 69.8408 35.1854 69.5623 35.1022C69.2837 35.019 68.9926 34.9774 68.6851 34.9774C68.4373 34.9774 68.233 35.0081 68.0756 35.0714C67.9183 35.1329 67.8025 35.2197 67.7284 35.3319C67.6542 35.444 67.6163 35.5832 67.6163 35.7478C67.6163 35.9124 67.6579 36.0571 67.741 36.1765ZM66.3991 32.3297C66.6975 32.1723 67.0628 32.0204 67.4933 31.8757C67.9237 31.731 68.4048 31.6587 68.9347 31.6587C69.423 31.6587 69.8589 31.7292 70.2405 31.8703C70.6221 32.0114 70.9205 32.2157 71.1357 32.4852C71.3509 32.7547 71.4594 33.0838 71.4594 33.4727V37.5256H69.9059V33.8091C69.9059 33.6517 69.8806 33.5179 69.8317 33.4058C69.7829 33.2936 69.7051 33.2014 69.602 33.1254C69.499 33.0513 69.376 32.997 69.2349 32.9645C69.0938 32.9319 68.9365 32.9156 68.7629 32.9156C68.497 32.9156 68.2456 32.9446 68.0051 33.0024C67.7646 33.0603 67.5584 33.1309 67.383 33.214C67.2093 33.2972 67.0809 33.3678 66.9977 33.4256L66.4009 32.3315L66.3991 32.3297Z" fill="#002A74"/>
<path d="M74.7148 28.8247H81.1786V30.4289H78.8293V37.5257H77.0515V30.4289H74.7148V28.8247Z" fill="#002A74"/>
<path d="M81.2401 37.2761C80.7753 37.0284 80.4172 36.6811 80.164 36.238C79.9108 35.7949 79.7842 35.2704 79.7842 34.6664C79.7842 34.0623 79.9108 33.5252 80.164 33.0821C80.4172 32.639 80.7753 32.2954 81.2401 32.0512C81.7049 31.8071 82.251 31.6841 82.8804 31.6841C83.5098 31.6841 84.0469 31.798 84.49 32.0259C84.9331 32.2538 85.2713 32.5847 85.5028 33.0206C85.7343 33.4565 85.8501 33.9791 85.8501 34.5922C85.8501 34.6664 85.8483 34.746 85.8428 34.8292C85.8392 34.9123 85.832 34.9775 85.8247 35.0281H80.7029V34.0334H84.4195L83.9836 34.6049C84.0162 34.5561 84.0469 34.4873 84.0777 34.4005C84.1066 34.3137 84.1211 34.2414 84.1211 34.1835C84.1211 33.9014 84.0686 33.6608 83.9656 33.4619C83.8625 33.2629 83.7142 33.1056 83.5243 32.9899C83.3344 32.8741 83.1101 32.8162 82.8533 32.8162C82.5386 32.8162 82.2746 32.885 82.0648 33.0206C81.8532 33.1581 81.6922 33.3606 81.5801 33.6301C81.4679 33.8996 81.4083 34.2323 81.3992 34.6302C81.3992 35.0118 81.4553 35.3355 81.5674 35.5996C81.6795 35.8655 81.8477 36.068 82.0702 36.2091C82.2945 36.3501 82.5639 36.4207 82.8786 36.4207C83.2349 36.4207 83.5387 36.352 83.7919 36.2163C84.0451 36.0789 84.2531 35.8745 84.4195 35.6014L85.8247 36.0373C85.5263 36.5762 85.1303 36.9795 84.6383 37.249C84.1446 37.5185 83.555 37.6523 82.8678 37.6523C82.2456 37.6523 81.7031 37.5275 81.2401 37.2797V37.2761Z" fill="#002A74"/>
<path d="M87.7147 36.1765C87.7979 36.2958 87.9118 36.3881 88.0565 36.4495C88.2012 36.511 88.3603 36.5436 88.5358 36.5436C88.7835 36.5436 89.0078 36.4911 89.2067 36.3881C89.4057 36.285 89.5666 36.1349 89.6914 35.9413C89.8162 35.746 89.8777 35.5127 89.8777 35.2396L90.0766 35.9847C90.0766 36.3501 89.9754 36.6557 89.7728 36.9053C89.5703 37.1531 89.308 37.3412 88.9897 37.4641C88.6714 37.5889 88.3368 37.6504 87.9896 37.6504C87.6423 37.6504 87.3023 37.5799 86.9949 37.4388C86.6874 37.2978 86.4415 37.0934 86.2552 36.8239C86.0689 36.5544 85.9749 36.2253 85.9749 35.8364C85.9749 35.2812 86.1702 34.8417 86.559 34.518C86.9479 34.1943 87.4995 34.0333 88.212 34.0333C88.5774 34.0333 88.8975 34.0713 89.176 34.1455C89.4527 34.2196 89.6878 34.3118 89.8777 34.4185C90.0676 34.5271 90.2051 34.6301 90.2883 34.7296V35.4747C90.064 35.3083 89.8144 35.1854 89.5359 35.1022C89.2574 35.019 88.9662 34.9774 88.6587 34.9774C88.411 34.9774 88.2066 35.0081 88.0493 35.0714C87.8919 35.1329 87.7762 35.2197 87.702 35.3319C87.6279 35.444 87.5899 35.5832 87.5899 35.7478C87.5899 35.9124 87.6315 36.0571 87.7147 36.1765ZM86.3727 32.3297C86.6711 32.1723 87.0365 32.0204 87.4669 31.8757C87.8973 31.731 88.3784 31.6587 88.9083 31.6587C89.3966 31.6587 89.8325 31.7292 90.2141 31.8703C90.5957 32.0114 90.8941 32.2157 91.1093 32.4852C91.3245 32.7547 91.4331 33.0838 91.4331 33.4727V37.5256H89.8795V33.8091C89.8795 33.6517 89.8542 33.5179 89.8054 33.4058C89.7565 33.2936 89.6788 33.2014 89.5757 33.1254C89.4726 33.0513 89.3496 32.997 89.2085 32.9645C89.0675 32.9319 88.9101 32.9156 88.7365 32.9156C88.4707 32.9156 88.2193 32.9446 87.9787 33.0024C87.7382 33.0603 87.532 33.1309 87.3566 33.214C87.183 33.2972 87.0546 33.3678 86.9714 33.4256L86.3745 32.3315L86.3727 32.3297Z" fill="#002A74"/>
<path d="M100.754 37.5259H99.1393V34.0463C99.1393 33.6574 99.0724 33.3644 98.9404 33.1691C98.8083 32.9738 98.5931 32.8761 98.2947 32.8761C98.0958 32.8761 97.9221 32.9195 97.772 33.0063C97.6237 33.0931 97.5062 33.2252 97.4248 33.4042C97.3416 33.5833 97.3 33.7967 97.3 34.0444V37.5241H95.6958V34.0444C95.6958 33.6556 95.6289 33.3626 95.4969 33.1673C95.3649 32.972 95.1496 32.8743 94.8512 32.8743C94.6523 32.8743 94.4787 32.9177 94.3286 33.0045C94.1784 33.0913 94.0627 33.2234 93.9813 33.4024C93.8981 33.5815 93.8565 33.7949 93.8565 34.0426V37.5223H92.303V31.8055H93.8565V32.65C94.0229 32.3354 94.2417 32.0948 94.5148 31.9284C94.7879 31.762 95.1153 31.6807 95.4969 31.6807C95.9201 31.6807 96.2673 31.7639 96.5404 31.9284C96.8135 32.0948 97.0124 32.339 97.1372 32.6627C97.3434 32.339 97.5984 32.0948 97.9023 31.9284C98.2043 31.762 98.5497 31.6807 98.9404 31.6807C99.3636 31.6807 99.7072 31.7657 99.9712 31.9357C100.237 32.1057 100.432 32.3534 100.561 32.6808C100.689 33.0081 100.754 33.4042 100.754 33.8672V37.5223V37.5259Z" fill="#002A74"/>
<path d="M51.1712 13.3599C53.5544 13.3599 55.4864 11.4279 55.4864 9.0447C55.4864 6.66148 53.5544 4.72949 51.1712 4.72949C48.7879 4.72949 46.856 6.66148 46.856 9.0447C46.856 11.4279 48.7879 13.3599 51.1712 13.3599Z" fill="#0040B0"/>
<path d="M69.2547 8.40977C70.329 7.54347 71.0181 6.2178 71.0181 4.72936C71.0181 2.11781 68.9002 0 66.2869 0C63.6735 0 61.5575 2.11781 61.5575 4.72936C61.5575 6.14908 62.1851 7.41868 63.1762 8.28498C61.0421 8.92701 58.814 10.2617 56.7739 12.4193C55.262 14.0181 53.8748 15.4378 52.5437 16.6676C53.4064 17.3784 54.4336 18.0982 55.1553 18.5847C58.2117 16.0111 60.6388 13.3055 64.5597 12.7412C71.0597 11.808 70.7377 19.885 65.8474 27.1554C65.8474 27.1554 72.2822 21.9106 72.9261 14.671C73.1956 11.6308 71.6583 9.40809 69.2547 8.40977Z" fill="#002A74"/>
<path d="M50.7967 18.187C46.4996 21.6522 42.5515 22.7066 36.6973 20.0137C36.6973 20.0137 39.7212 25.1933 47.7005 22.8458C49.9738 22.1767 51.7842 21.1404 53.3739 19.9847C52.4516 19.4186 51.4514 18.6862 50.7967 18.187Z" fill="#002A74"/>
<path d="M44.7761 12.4193C42.7433 10.269 40.5206 8.93425 38.3919 8.2904C39.3848 7.42411 40.0142 6.15088 40.0142 4.72936C40.0142 2.11781 37.8964 0 35.2849 0C32.6733 0 30.5555 2.11781 30.5555 4.72936C30.5555 6.21418 31.2409 7.53624 32.3098 8.40434C29.8972 9.39904 28.3545 11.6254 28.624 14.671C29.2678 21.9106 35.7026 27.1554 35.7026 27.1554C30.8123 19.8832 30.4904 11.808 36.9903 12.7412C43.4903 13.6745 45.8703 20.4963 53.8496 22.8438C61.829 25.1931 64.8547 20.0116 64.8547 20.0116C56.4576 23.8729 51.985 20.0442 44.7761 12.4175V12.4193Z" fill="#0040B0"/>
<path d="M72.5807 16.7437C73.7129 10.2854 63.8237 12.877 63.8237 12.877C63.8237 12.877 68.2475 12.8264 69.0939 14.9261C70.1935 17.6516 67.5964 24.2836 65.8475 27.1556C65.8475 27.1556 71.5842 22.4153 72.5789 16.7437H72.5807Z" fill="#0040B0"/>
<path d="M28.8554 16.1958C27.5261 9.77541 36.7877 12.7161 36.7877 12.7161C36.7877 12.7161 33.167 12.1139 32.3025 15.3819C31.5501 18.2232 33.9537 24.2836 35.7026 27.1556C35.7026 27.1556 30.2281 22.8223 28.8554 16.194V16.1958Z" fill="#002A74"/>
</svg>
